<mxfile host="65bd71144e">
    <diagram id="9M5l4XKy9seS08GZY95O" name="Page-1">
        <mxGraphModel dx="2029" dy="775" grid="1" gridSize="10" guides="1" tooltips="1" connect="1" arrows="1" fold="1" page="1" pageScale="1" pageWidth="850" pageHeight="1100" math="0" shadow="0">
            <root>
                <mxCell id="0"/>
                <mxCell id="1" parent="0"/>
                <mxCell id="3" value="Turret" style="swimlane;fontStyle=0;childLayout=stackLayout;horizontal=1;startSize=26;fillColor=none;horizontalStack=0;resizeParent=1;resizeParentMax=0;resizeLast=0;collapsible=1;marginBottom=0;html=1;rounded=0;shadow=0;glass=0;sketch=0;strokeWidth=2;" parent="1" vertex="1">
                    <mxGeometry x="170" y="150" width="140" height="70" as="geometry"/>
                </mxCell>
                <mxCell id="4" value="+ turn()&lt;br&gt;+shoot()" style="text;strokeColor=none;fillColor=none;align=left;verticalAlign=top;spacingLeft=4;spacingRight=4;overflow=hidden;rotatable=0;points=[[0,0.5],[1,0.5]];portConstraint=eastwest;whiteSpace=wrap;html=1;rounded=0;shadow=0;glass=0;sketch=0;strokeWidth=2;" parent="3" vertex="1">
                    <mxGeometry y="26" width="140" height="44" as="geometry"/>
                </mxCell>
                <mxCell id="7" value="GunT1" style="swimlane;fontStyle=0;childLayout=stackLayout;horizontal=1;startSize=26;fillColor=none;horizontalStack=0;resizeParent=1;resizeParentMax=0;resizeLast=0;collapsible=1;marginBottom=0;html=1;rounded=0;shadow=0;glass=0;sketch=0;strokeWidth=2;" parent="1" vertex="1">
                    <mxGeometry y="330" width="140" height="52" as="geometry"/>
                </mxCell>
                <mxCell id="11" value="GunT2" style="swimlane;fontStyle=0;childLayout=stackLayout;horizontal=1;startSize=26;fillColor=none;horizontalStack=0;resizeParent=1;resizeParentMax=0;resizeLast=0;collapsible=1;marginBottom=0;html=1;rounded=0;shadow=0;glass=0;sketch=0;strokeWidth=2;" parent="1" vertex="1">
                    <mxGeometry x="170" y="330" width="140" height="52" as="geometry"/>
                </mxCell>
                <mxCell id="15" value="MissileT1" style="swimlane;fontStyle=0;childLayout=stackLayout;horizontal=1;startSize=26;fillColor=none;horizontalStack=0;resizeParent=1;resizeParentMax=0;resizeLast=0;collapsible=1;marginBottom=0;html=1;rounded=0;shadow=0;glass=0;sketch=0;strokeWidth=2;" parent="1" vertex="1">
                    <mxGeometry x="340" y="330" width="140" height="52" as="geometry"/>
                </mxCell>
                <mxCell id="19" value="" style="edgeStyle=segmentEdgeStyle;endArrow=classic;html=1;curved=0;rounded=0;endSize=8;startSize=8;exitX=0.5;exitY=0;exitDx=0;exitDy=0;entryX=0.496;entryY=1.138;entryDx=0;entryDy=0;entryPerimeter=0;" parent="1" source="7" target="4" edge="1">
                    <mxGeometry width="50" height="50" relative="1" as="geometry">
                        <mxPoint x="70" y="270" as="sourcePoint"/>
                        <mxPoint x="120" y="220" as="targetPoint"/>
                        <Array as="points">
                            <mxPoint x="70" y="270"/>
                            <mxPoint x="239" y="270"/>
                        </Array>
                    </mxGeometry>
                </mxCell>
                <mxCell id="20" value="" style="edgeStyle=segmentEdgeStyle;endArrow=classic;html=1;curved=0;rounded=0;endSize=8;startSize=8;exitX=0.5;exitY=0;exitDx=0;exitDy=0;" parent="1" source="11" edge="1">
                    <mxGeometry width="50" height="50" relative="1" as="geometry">
                        <mxPoint x="190" y="250" as="sourcePoint"/>
                        <mxPoint x="240" y="220" as="targetPoint"/>
                    </mxGeometry>
                </mxCell>
                <mxCell id="21" value="" style="edgeStyle=segmentEdgeStyle;endArrow=classic;html=1;curved=0;rounded=0;endSize=8;startSize=8;exitX=0.5;exitY=0;exitDx=0;exitDy=0;entryX=0.501;entryY=1.2;entryDx=0;entryDy=0;entryPerimeter=0;" parent="1" source="15" target="4" edge="1">
                    <mxGeometry width="50" height="50" relative="1" as="geometry">
                        <mxPoint x="425" y="260" as="sourcePoint"/>
                        <mxPoint x="475" y="210" as="targetPoint"/>
                        <Array as="points">
                            <mxPoint x="410" y="270"/>
                            <mxPoint x="240" y="270"/>
                        </Array>
                    </mxGeometry>
                </mxCell>
                <mxCell id="22" value="GameScene" style="swimlane;fontStyle=0;childLayout=stackLayout;horizontal=1;startSize=26;fillColor=none;horizontalStack=0;resizeParent=1;resizeParentMax=0;resizeLast=0;collapsible=1;marginBottom=0;html=1;rounded=0;shadow=0;glass=0;sketch=0;strokeWidth=2;" parent="1" vertex="1">
                    <mxGeometry x="580" y="150" width="140" height="280" as="geometry"/>
                </mxCell>
                <mxCell id="23" value="- Node2D mapNode" style="text;strokeColor=none;fillColor=none;align=left;verticalAlign=top;spacingLeft=4;spacingRight=4;overflow=hidden;rotatable=0;points=[[0,0.5],[1,0.5]];portConstraint=eastwest;whiteSpace=wrap;html=1;rounded=0;shadow=0;glass=0;sketch=0;strokeWidth=2;" parent="22" vertex="1">
                    <mxGeometry y="26" width="140" height="26" as="geometry"/>
                </mxCell>
                <mxCell id="24" value="- bool buildMode" style="text;strokeColor=none;fillColor=none;align=left;verticalAlign=top;spacingLeft=4;spacingRight=4;overflow=hidden;rotatable=0;points=[[0,0.5],[1,0.5]];portConstraint=eastwest;whiteSpace=wrap;html=1;rounded=0;shadow=0;glass=0;sketch=0;strokeWidth=2;" parent="22" vertex="1">
                    <mxGeometry y="52" width="140" height="26" as="geometry"/>
                </mxCell>
                <mxCell id="25" value="- bool buildValid&lt;br&gt;- Vector2 buildLocation&lt;br&gt;- string buildType&lt;br&gt;- Vector2 buildTile&lt;br&gt;&lt;br&gt;&lt;br&gt;+ _Ready()&lt;br&gt;+ _Process()&lt;br&gt;+_UnhandledInput()&lt;br&gt;+ initiatebBuildMode()" style="text;strokeColor=none;fillColor=none;align=left;verticalAlign=top;spacingLeft=4;spacingRight=4;overflow=hidden;rotatable=0;points=[[0,0.5],[1,0.5]];portConstraint=eastwest;whiteSpace=wrap;html=1;rounded=0;shadow=0;glass=0;sketch=0;strokeWidth=2;" parent="22" vertex="1">
                    <mxGeometry y="78" width="140" height="202" as="geometry"/>
                </mxCell>
                <mxCell id="26" value="" style="line;strokeWidth=4;html=1;perimeter=backbonePerimeter;points=[];outlineConnect=0;rounded=0;shadow=0;glass=0;sketch=0;" parent="1" vertex="1">
                    <mxGeometry x="580" y="300" width="140" height="10" as="geometry"/>
                </mxCell>
                <mxCell id="29" value="Enemy" style="swimlane;fontStyle=0;childLayout=stackLayout;horizontal=1;startSize=26;fillColor=none;horizontalStack=0;resizeParent=1;resizeParentMax=0;resizeLast=0;collapsible=1;marginBottom=0;html=1;rounded=0;shadow=0;glass=0;sketch=0;strokeWidth=2;" vertex="1" parent="1">
                    <mxGeometry x="170" y="450" width="140" height="70" as="geometry"/>
                </mxCell>
                <mxCell id="30" value="+ turn()&lt;br&gt;+shoot()" style="text;strokeColor=none;fillColor=none;align=left;verticalAlign=top;spacingLeft=4;spacingRight=4;overflow=hidden;rotatable=0;points=[[0,0.5],[1,0.5]];portConstraint=eastwest;whiteSpace=wrap;html=1;rounded=0;shadow=0;glass=0;sketch=0;strokeWidth=2;" vertex="1" parent="29">
                    <mxGeometry y="26" width="140" height="44" as="geometry"/>
                </mxCell>
                <mxCell id="31" value="TankT1" style="swimlane;fontStyle=0;childLayout=stackLayout;horizontal=1;startSize=26;fillColor=none;horizontalStack=0;resizeParent=1;resizeParentMax=0;resizeLast=0;collapsible=1;marginBottom=0;html=1;rounded=0;shadow=0;glass=0;sketch=0;strokeWidth=2;" vertex="1" parent="1">
                    <mxGeometry y="630" width="140" height="52" as="geometry"/>
                </mxCell>
                <mxCell id="32" value="TankT2" style="swimlane;fontStyle=0;childLayout=stackLayout;horizontal=1;startSize=26;fillColor=none;horizontalStack=0;resizeParent=1;resizeParentMax=0;resizeLast=0;collapsible=1;marginBottom=0;html=1;rounded=0;shadow=0;glass=0;sketch=0;strokeWidth=2;" vertex="1" parent="1">
                    <mxGeometry x="170" y="630" width="140" height="52" as="geometry"/>
                </mxCell>
                <mxCell id="33" value="helicopterT1" style="swimlane;fontStyle=0;childLayout=stackLayout;horizontal=1;startSize=26;fillColor=none;horizontalStack=0;resizeParent=1;resizeParentMax=0;resizeLast=0;collapsible=1;marginBottom=0;html=1;rounded=0;shadow=0;glass=0;sketch=0;strokeWidth=2;" vertex="1" parent="1">
                    <mxGeometry x="340" y="630" width="140" height="52" as="geometry"/>
                </mxCell>
                <mxCell id="34" value="" style="edgeStyle=segmentEdgeStyle;endArrow=classic;html=1;curved=0;rounded=0;endSize=8;startSize=8;exitX=0.5;exitY=0;exitDx=0;exitDy=0;entryX=0.496;entryY=1.138;entryDx=0;entryDy=0;entryPerimeter=0;" edge="1" parent="1" source="31" target="30">
                    <mxGeometry width="50" height="50" relative="1" as="geometry">
                        <mxPoint x="70" y="570" as="sourcePoint"/>
                        <mxPoint x="120" y="520" as="targetPoint"/>
                        <Array as="points">
                            <mxPoint x="70" y="570"/>
                            <mxPoint x="239" y="570"/>
                        </Array>
                    </mxGeometry>
                </mxCell>
                <mxCell id="35" value="" style="edgeStyle=segmentEdgeStyle;endArrow=classic;html=1;curved=0;rounded=0;endSize=8;startSize=8;exitX=0.5;exitY=0;exitDx=0;exitDy=0;" edge="1" parent="1" source="32">
                    <mxGeometry width="50" height="50" relative="1" as="geometry">
                        <mxPoint x="190" y="550" as="sourcePoint"/>
                        <mxPoint x="240" y="520" as="targetPoint"/>
                    </mxGeometry>
                </mxCell>
                <mxCell id="36" value="" style="edgeStyle=segmentEdgeStyle;endArrow=classic;html=1;curved=0;rounded=0;endSize=8;startSize=8;exitX=0.5;exitY=0;exitDx=0;exitDy=0;entryX=0.501;entryY=1.2;entryDx=0;entryDy=0;entryPerimeter=0;" edge="1" parent="1" source="33" target="30">
                    <mxGeometry width="50" height="50" relative="1" as="geometry">
                        <mxPoint x="425" y="560" as="sourcePoint"/>
                        <mxPoint x="475" y="510" as="targetPoint"/>
                        <Array as="points">
                            <mxPoint x="410" y="570"/>
                            <mxPoint x="240" y="570"/>
                        </Array>
                    </mxGeometry>
                </mxCell>
            </root>
        </mxGraphModel>
    </diagram>
</mxfile>